<?xml version="1.0" encoding="UTF-8"?>
<svg width="64px" height="64px" viewBox="0 0 64 64" version="1.1" xmlns="http://www.w3.org/2000/svg" xmlns:xlink="http://www.w3.org/1999/xlink">
    <!-- Generator: Sketch 52.4 (67378) - http://www.bohemiancoding.com/sketch -->
    <title>eten</title>
    <desc>Created with Sketch.</desc>
    <g id="Page-1" stroke="none" stroke-width="1" fill="none" fill-rule="evenodd">
        <g id="eten" transform="translate(16.000000, 13.000000)" stroke="#000000">
            <path d="M4.9357536,36.3879395 L26.6756367,36.3879395 C26.6756367,27.0623146 26.6756367,26.8066933 26.6756367,12 L26.6756367,11.706791 L26.931526,11.5636401 C31.4425704,9.04004887 31.9754949,5.77820002 29.3963611,3.60702667 C26.8700413,1.48031339 23.1737025,1.90567112 21.4424662,5.19526214 L20.7520862,6.50708055 L20.5068873,5.04510603 C19.6003218,-0.360202583 12.4045553,-0.360202583 11.5457994,5.04091415 L11.3021711,6.57320624 L10.605277,5.18698386 C8.95685834,1.90804219 5.2732411,1.50795572 2.64626689,3.66043394 C-0.0315433516,5.85456595 0.346880388,9.1038191 4.682598,11.5651807 L4.9357536,11.7088956 L4.9357536,12 C4.9357536,26.7002068 4.9357536,26.9510965 4.9357536,36.3879395 Z" id="chefs-hat"></path>
            <path d="M5.5,30.5 L26.5,30.5" id="Line" stroke-linecap="square"></path>
        </g>
    </g>
</svg>