<?xml version="1.0" encoding="UTF-8"?>
<svg width="160px" height="110px" viewBox="0 0 160 110" version="1.1" xmlns="http://www.w3.org/2000/svg" xmlns:xlink="http://www.w3.org/1999/xlink">
    <!-- Generator: Sketch 52.4 (67378) - http://www.bohemiancoding.com/sketch -->
    <title>lekker mol</title>
    <desc>Created with Sketch.</desc>
    <g id="Page-1" stroke="none" stroke-width="1" fill="none" fill-rule="evenodd">
        <g id="lekker-mol" transform="translate(2.000000, 0.000000)">
            <g id="mol-copy" transform="translate(0.000000, 35.000000)">
                <path d="M0.0517578125,72.9716797 C43.9082031,72.9716797 52.9765625,33.5566406 59.4775391,33.5566406 C78.234375,39.6494141 82.0205078,39.4921875 99.6337891,33.5566406 C105.608398,33.5566406 119.436523,72.3515625 156.416992,72.9716797 C136.036133,72.3515625 27.0947266,72.9716797 0.0517578125,72.9716797 Z" id="molshoop" stroke="#000000" stroke-width="3" fill="#000000" stroke-linecap="round" stroke-linejoin="round"></path>
                <path d="M109.407494,6.76099285 C109.146541,6.2296403 109,5.63193336 109,5 C109,2.790861 110.790861,1 113,1 C115.209139,1 117,2.790861 117,5 C117,7.209139 115.209139,9 113,9 C112.97784,9 112.955722,8.9998198 112.933647,8.99946077 C113.541668,11.9649367 110.963667,14.8764634 108.916992,17.5947266 C104.300781,17.5947266 102.911133,17.5947266 97.2373047,14.1005859 C100.637695,20.9384766 105.415039,18.8876953 107.005859,20.9384766 C107.005859,23.4414062 101.844727,26.2080078 98.5966797,26.2080078 C98.5966797,31.7666016 100.392871,30.7905025 100.5,33.5566406 C100.831047,42.1044922 96.6337891,42.5478516 96.6337891,42.5478516 C96.6337891,42.5478516 64.4648438,48.3847656 59.8476563,36.7744141 C58.1699219,32.8144531 58.1699219,31.3652961 58.1699219,26.2080078 C58.1699219,4.24414063 75.2626953,0.634765625 79.5957031,0.634765625 C91.9443541,0.634765625 96.7380449,8.16302121 109.407494,6.76099285 Z" id="molskop" fill="#000000"></path>
                <g id="molspoot-rechts" transform="translate(50.234375, 47.355469) rotate(-94.000000) translate(-50.234375, -47.355469) translate(37.734375, 34.355469)">
                    <path d="M0.7265625,11.1459961 C0.7265625,3.60595703 9.35498047,0.817871094 14.4121094,0.817871094 C20.5493164,0.817871094 23.0802535,2.97925615 24.0151367,5.50244141 C24.95002,8.02562667 22.7026062,18.4906979 22.7026062,18.4906979 C22.7026062,18.4906979 0.7265625,14.6320132 0.7265625,11.1459961 Z" id="poot" fill="#000000"></path>
                    <path d="M12.1606445,25.6884766 C9.49902344,25.0952148 1.21289063,18.0942383 1.21289062,12.5991211 C1.21289062,9.47012068 3.27279486,6.88766899 5.12792969,6.796875 C6.6648847,6.72165336 7.99707031,8.60218193 7.99707031,12.2670898 C7.99707031,17.3681641 10.0776367,19.9248047 12.1606445,25.6884766 Z" id="nagel-achter" stroke="#000000" stroke-width="2" fill="#FFFFFF"></path>
                    <path d="M18.1606445,25.6884766 C15.4990234,25.0290796 7.21289062,17.2476529 7.21289062,11.1399547 C7.21289062,7.66214165 9.27279486,4.79180514 11.1279297,4.69088968 C12.6648847,4.60728254 13.9970703,6.6974474 13.9970703,10.7709095 C13.9970703,16.4406378 16.0776367,19.2822859 18.1606445,25.6884766 Z" id="nagel-midden" stroke="#000000" stroke-width="2" fill="#FFFFFF"></path>
                    <path d="M24.1606445,24.6884766 C21.4990234,24.0290796 13.2128906,16.2476529 13.2128906,10.1399547 C13.2128906,6.66214165 15.2727949,3.79180514 17.1279297,3.69088968 C18.6648847,3.60728254 19.9970703,5.6974474 19.9970703,9.77090947 C19.9970703,15.4406378 22.0776367,18.2822859 24.1606445,24.6884766 Z" id="nagel-voor" stroke="#000000" stroke-width="2" fill="#FFFFFF"></path>
                </g>
                <g id="molspoot-links" transform="translate(114.270508, 47.408203) scale(-1, 1) rotate(-92.000000) translate(-114.270508, -47.408203) translate(101.770508, 34.408203)">
                    <path d="M0.7265625,11.1459961 C0.7265625,3.60595703 9.35498047,0.817871094 14.4121094,0.817871094 C20.5493164,0.817871094 23.2763166,2.64028498 24.0151367,5.50244141 C24.7539568,8.36459783 22.6830252,19.629929 22.6830252,19.629929 C22.6830252,19.629929 0.7265625,14.6320132 0.7265625,11.1459961 Z" id="poot" fill="#000000"></path>
                    <path d="M12.1606445,25.6884766 C9.49902344,25.0952148 1.21289063,18.0942383 1.21289062,12.5991211 C1.21289062,9.47012068 3.27279486,6.88766899 5.12792969,6.796875 C6.6648847,6.72165336 7.99707031,8.60218193 7.99707031,12.2670898 C7.99707031,17.3681641 10.0776367,19.9248047 12.1606445,25.6884766 Z" id="nagel-achter" stroke="#000000" stroke-width="2" fill="#FFFFFF"></path>
                    <path d="M18.1606445,25.6884766 C15.4990234,25.0290796 7.21289062,17.2476529 7.21289062,11.1399547 C7.21289062,7.66214165 9.27279486,4.79180514 11.1279297,4.69088968 C12.6648847,4.60728254 13.9970703,6.6974474 13.9970703,10.7709095 C13.9970703,16.4406378 16.0776367,19.2822859 18.1606445,25.6884766 Z" id="nagel-midden" stroke="#000000" stroke-width="2" fill="#FFFFFF"></path>
                    <path d="M24.1606445,24.6884766 C21.4990234,24.0290796 13.2128906,16.2476529 13.2128906,10.1399547 C13.2128906,6.66214165 15.2727949,3.79180514 17.1279297,3.69088968 C18.6648847,3.60728254 19.9970703,5.6974474 19.9970703,9.77090947 C19.9970703,15.4406378 22.0776367,18.2822859 24.1606445,24.6884766 Z" id="nagel-voor" stroke="#000000" stroke-width="2" fill="#FFFFFF"></path>
                </g>
                <path d="M102,0 C102,0 110.672852,10.3808594 119.345703,10.3808594" id="snorhaar-1" stroke="#000000"></path>
                <path d="M108,0 C109.095459,2.84521484 110.415527,13.1567383 116.745605,13.6196289" id="snorhaar-2" stroke="#000000"></path>
                <path d="M82.5803566,12.8027344 C82.5803566,12.8027344 82.0605543,9.06641201 87,9" id="oog" stroke="#FFFFFF" stroke-width="2" stroke-linecap="round" stroke-linejoin="round"></path>
                <g id="dots" transform="translate(62.000000, 34.000000)" fill="#FFFFFF">
                    <circle id="Oval-4" cx="32.5" cy="1.5" r="1.5"></circle>
                    <circle id="Oval-4" cx="9.5" cy="4.5" r="1.5"></circle>
                    <circle id="Oval-4" cx="1" cy="4" r="1"></circle>
                    <circle id="Oval-4" cx="5" cy="3" r="2"></circle>
                    <circle id="Oval-4" cx="63.5" cy="32.5" r="1.5"></circle>
                    <circle id="Oval-4" cx="59" cy="30" r="2"></circle>
                </g>
            </g>
            <g id="drinken-copy" transform="translate(116.974212, 64.568124) rotate(8.000000) translate(-116.974212, -64.568124) translate(108.974212, 55.068124)" stroke="#6EB6C8">
                <path d="M1.70459916,0.500008441 C0.340386126,12.5538045 2.49555411,18.4169922 8,18.4169922 C13.5044459,18.4169922 15.6596139,12.5538045 14.2954008,0.500008441 L1.70460012,0.5 Z" id="bowl" fill="#FFFFFF"></path>
                <path d="M1.4839386,5 L14.5160614,5" id="drink" stroke-linecap="square"></path>
            </g>
            <g id="eten-copy" transform="translate(65.521484, 23.748047) rotate(-24.000000) translate(-65.521484, -23.748047) translate(49.521484, 5.248047)" stroke="#5E763F">
                <path d="M4.93100554,36.3099021 C11.1969658,35.4272648 19.9473338,35.3791618 26.6766355,36.310984 C26.6827203,32.7408242 26.6844505,30.5779821 26.6835205,28.3230613 C26.683254,27.6768351 26.6827941,27.022737 26.6819913,26.0853972 C26.6809087,24.8602958 26.6802578,24.1195016 26.679699,23.4227735 C26.6770294,20.0941131 26.6756367,16.6993128 26.6756367,12 L26.6756367,11.706791 L26.931526,11.5636401 C31.4425704,9.04004887 31.9754949,5.77820002 29.3963611,3.60702667 C26.8700413,1.48031339 23.1737025,1.90567112 21.4424662,5.19526214 L20.7520862,6.50708055 L20.5068873,5.04510603 C19.6003218,-0.360202583 12.4045553,-0.360202583 11.5457994,5.04091415 L11.3021711,6.57320624 L10.605277,5.18698386 C8.95685834,1.90804219 5.2732411,1.50795572 2.64626689,3.66043394 C-0.0315433516,5.85456595 0.346880388,9.1038191 4.682598,11.5651807 L4.9357536,11.7088956 L4.9357536,12 C4.9357536,16.6501911 4.93028827,20.1594888 4.91977732,23.766574 C4.91763421,24.5020354 4.91033015,26.8023428 4.90903951,27.2467318 C4.90565904,28.4106885 4.90401056,29.2667262 4.90382253,30.1010408 C4.90339416,32.0017683 4.91107159,33.8291961 4.93100554,36.3099021 Z" id="chefs-hat" fill="#FFFFFF"></path>
                <path d="M5.5,30.5 C12.1431399,29.8225555 19.1366451,29.8416085 26.4805154,30.5571589" id="Line" stroke-linecap="square"></path>
            </g>
            <g id="fork-copy" transform="translate(49.170939, 64.367259) rotate(-12.000000) translate(-49.170939, -64.367259) translate(45.170939, 53.367259)" stroke="#B3BBBD">
                <path d="M2.3710848,20.2114603 C3.33240437,20.67155 3.69944224,20.6839493 4.37408135,20.2514247 C4.45428523,16.5125176 4.52740744,13.9712636 4.51931891,14.4955796 C4.51629173,14.6918075 4.5,12.5307968 4.5,9 L4.5,8.5 L5,8.5 C5.90320668,8.5 6.39503428,7.89866105 6.48491346,6.5 L0.515086536,6.5 C0.604965722,7.89866105 1.09679332,8.5 2,8.5 L2.5,8.5 L2.5,9 C2.5,13.358831 2.49559287,14.0176658 2.46969915,14.2819313 C2.43343286,14.6520568 2.40907489,15.7762932 2.3710848,20.2114603 Z" id="stem" fill="#FFFFFF"></path>
                <path d="M0.5,5.5 L0.5,0" id="tooth-1" stroke-linecap="square"></path>
                <path d="M2.5,5.5 L2.5,0" id="tooth-2" stroke-linecap="square"></path>
                <path d="M4.5,5.5 L4.5,0" id="tooth-3" stroke-linecap="square"></path>
                <path d="M6.5,5.5 L6.5,0" id="tooth-4" stroke-linecap="square"></path>
            </g>
        </g>
    </g>
</svg>