<?xml version="1.0" encoding="UTF-8"?>
<svg width="64px" height="64px" viewBox="0 0 64 64" version="1.1" xmlns="http://www.w3.org/2000/svg" xmlns:xlink="http://www.w3.org/1999/xlink">
    <!-- Generator: Sketch 52.4 (67378) - http://www.bohemiancoding.com/sketch -->
    <title>uit-eten</title>
    <desc>Created with Sketch.</desc>
    <g id="Page-1" stroke="none" stroke-width="1" fill="none" fill-rule="evenodd">
        <g id="uit-eten" transform="translate(23.000000, 13.000000)" stroke="#000000">
            <path d="M13.5,36.5 L15.5,36.5 C15.5,12.9458259 15.5,12.5180586 15.5,1.02405754 C14.0526688,1.1750788 13.3367093,2.07101085 12.4743416,4.65811388 C11.3286838,8.09508738 11.6997451,17.015124 13.3511234,18.6440332 L13.5,18.7908842 L13.5,19 C13.5,26.2169184 13.5,26.3314853 13.5,36.5 Z" id="knife"></path>
            <g id="fork" transform="translate(0.000000, 4.000000)">
                <path d="M2.5,32.5 L4.5,32.5 C4.5,19.6649573 4.5,19.531637 4.5,9 L4.5,8.5 L5,8.5 C5.90320668,8.5 6.39503428,7.89866105 6.48491346,6.5 L0.515086536,6.5 C0.604965722,7.89866105 1.09679332,8.5 2,8.5 L2.5,8.5 L2.5,9 C2.5,19.531637 2.5,19.6649573 2.5,32.5 Z" id="stem"></path>
                <path d="M0.5,5.5 L0.5,0" id="tooth-1" stroke-linecap="square"></path>
                <path d="M2.5,5.5 L2.5,0" id="tooth-2" stroke-linecap="square"></path>
                <path d="M4.5,5.5 L4.5,0" id="tooth-3" stroke-linecap="square"></path>
                <path d="M6.5,5.5 L6.5,0" id="tooth-4" stroke-linecap="square"></path>
            </g>
        </g>
    </g>
</svg>